<svg xmlns="http://www.w3.org/2000/svg" width="900" height="420" viewBox="0 0 900 420" role="img" aria-labelledby="title desc">
<title id="title">Communication — същият сценарий по връзки — Task Manager</title><desc id="desc">Учебен UML пример на планираната система; обяснение и нотация в упражнение 3.</desc>
<defs><marker id="arrow" markerWidth="10" markerHeight="10" refX="9" refY="5" orient="auto"><path d="M1 1 L9 5 L1 9" fill="none" stroke="#17324d" stroke-width="1.5"/></marker><marker id="solid" markerWidth="12" markerHeight="12" refX="10" refY="6" orient="auto"><path d="M1 1 L10 6 L1 11 Z" fill="#17324d"/></marker></defs>
<style>text{font-family:Arial,sans-serif;font-size:16px;fill:#17324d;stroke:none}rect,ellipse,circle,polygon{fill:#fff;stroke:#17324d;stroke-width:1.6}line,polyline,path{stroke:#17324d;stroke-width:1.6} .note{font-size:14px;fill:#425b73}</style>
<rect width="900" height="420" fill="#f5f8fc" stroke="none"/>
<text x="30" y="35" font-size="22" font-weight="700">Communication — същият сценарий по връзки</text>
<rect x="45" y="100" width="220" height="55" /><text x="155" y="127" text-anchor="middle" font-weight="600">:UI</text><rect x="570" y="100" width="275" height="55" /><text x="707.5" y="127" text-anchor="middle" font-weight="600">:TaskAPI</text><rect x="570" y="285" width="275" height="55" /><text x="707.5" y="312" text-anchor="middle" font-weight="600">:CategoryService</text><line x1="265" y1="130" x2="570" y2="130" /><line x1="295" y1="105" x2="530" y2="105" marker-end="url(#arrow)" /><text x="305" y="91" >1: suggest(taskId)</text><line x1="707" y1="155" x2="707" y2="285" /><line x1="745" y1="178" x2="745" y2="255" marker-end="url(#arrow)" /><text x="486" y="218" >1.1: suggest(text)</text><text x="45" y="310" class="note">Номерата задават реда и вложеността.</text>
<text x="30" y="402" class="note">Task Manager · UML · учебен проект</text>
</svg>
