<svg xmlns="http://www.w3.org/2000/svg" width="900" height="420" viewBox="0 0 900 420" role="img" aria-labelledby="title desc">
<title id="title">Deployment — вариант с отделна AI услуга — Task Manager</title><desc id="desc">Учебен UML пример на планираната система; обяснение и нотация в тема 2.</desc>
<defs><marker id="arrow" markerWidth="10" markerHeight="10" refX="9" refY="5" orient="auto"><path d="M1 1 L9 5 L1 9" fill="none" stroke="#17324d" stroke-width="1.5"/></marker><marker id="solid" markerWidth="12" markerHeight="12" refX="10" refY="6" orient="auto"><path d="M1 1 L10 6 L1 11 Z" fill="#17324d"/></marker></defs>
<style>text{font-family:Arial,sans-serif;font-size:16px;fill:#17324d;stroke:none}rect,ellipse,circle,polygon{fill:#fff;stroke:#17324d;stroke-width:1.6}line,polyline,path{stroke:#17324d;stroke-width:1.6} .note{font-size:14px;fill:#425b73}</style>
<rect width="900" height="420" fill="#f5f8fc" stroke="none"/>
<text x="30" y="35" font-size="22" font-weight="700">Deployment — вариант с отделна AI услуга</text>
<rect x="35" y="110" width="235" height="175" /><polyline points="35,110 50,95 285,95 285,270 270,285" fill="none" /><line x1="270" y1="110" x2="285" y2="95" /><text x="152.5" y="140" text-anchor="middle" font-size="14">«executionEnvironment»</text><text x="152.5" y="166" text-anchor="middle" font-weight="600">JVM / Spring</text><rect x="50" y="195" width="205" height="67" /><text x="152.5" y="221" text-anchor="middle" font-size="14">«artifact»</text><text x="152.5" y="248" text-anchor="middle" font-weight="600">task-manager.jar</text><rect x="340" y="110" width="235" height="175" /><polyline points="340,110 355,95 590,95 590,270 575,285" fill="none" /><line x1="575" y1="110" x2="590" y2="95" /><text x="457.5" y="140" text-anchor="middle" font-size="14">«executionEnvironment»</text><text x="457.5" y="166" text-anchor="middle" font-weight="600">Python / WSGI</text><rect x="355" y="195" width="205" height="67" /><text x="457.5" y="221" text-anchor="middle" font-size="14">«artifact»</text><text x="457.5" y="248" text-anchor="middle" font-weight="600">model-v1.joblib</text><rect x="645" y="110" width="220" height="175" /><polyline points="645,110 660,95 880,95 880,270 865,285" fill="none" /><line x1="865" y1="110" x2="880" y2="95" /><text x="755" y="140" text-anchor="middle" font-size="14">«executionEnvironment»</text><text x="755" y="166" text-anchor="middle" font-weight="600">PostgreSQL</text><rect x="660" y="195" width="190" height="67" /><text x="755" y="221" text-anchor="middle" font-size="14">«artifact»</text><text x="755" y="248" text-anchor="middle" font-weight="600">tasks schema</text><line x1="270" y1="165" x2="340" y2="165" /><text x="279" y="150" font-size="13">HTTP</text><polyline points="145,285 145,330 755,330 755,285" fill="none" /><text x="448" y="353" text-anchor="middle" class="note">JDBC · вътрешна мрежа</text>
<text x="30" y="402" class="note">Task Manager · UML · учебен проект</text>
</svg>
