<svg xmlns="http://www.w3.org/2000/svg" width="900" height="420" viewBox="0 0 900 420" role="img" aria-labelledby="title desc">
<title id="title">State Machine — жизнен цикъл на Task — Task Manager</title><desc id="desc">Учебен UML пример на планираната система; обяснение и нотация в упражнение 3.</desc>
<defs><marker id="arrow" markerWidth="10" markerHeight="10" refX="9" refY="5" orient="auto"><path d="M1 1 L9 5 L1 9" fill="none" stroke="#17324d" stroke-width="1.5"/></marker><marker id="solid" markerWidth="12" markerHeight="12" refX="10" refY="6" orient="auto"><path d="M1 1 L10 6 L1 11 Z" fill="#17324d"/></marker></defs>
<style>text{font-family:Arial,sans-serif;font-size:16px;fill:#17324d;stroke:none}rect,ellipse,circle,polygon{fill:#fff;stroke:#17324d;stroke-width:1.6}line,polyline,path{stroke:#17324d;stroke-width:1.6} .note{font-size:14px;fill:#425b73}</style>
<rect width="900" height="420" fill="#f5f8fc" stroke="none"/>
<text x="30" y="35" font-size="22" font-weight="700">State Machine — жизнен цикъл на Task</text>
<circle cx="55" cy="160" r="8" style="fill:#17324d"/><line x1="64" y1="160" x2="110" y2="160" marker-end="url(#arrow)" /><rect x="110" y="137" width="155" height="46" rx="12"/><text x="187.5" y="166" text-anchor="middle">OPEN</text><rect x="355" y="137" width="205" height="46" rx="12"/><text x="457.5" y="166" text-anchor="middle">IN_PROGRESS</text><rect x="660" y="137" width="155" height="46" rx="12"/><text x="737.5" y="166" text-anchor="middle">DONE</text><line x1="265" y1="160" x2="355" y2="160" marker-end="url(#arrow)" /><text x="284" y="143" >start</text><line x1="560" y1="160" x2="660" y2="160" marker-end="url(#arrow)" /><text x="575" y="143" >complete</text><polyline points="737,183 737,275 187,275 187,183" fill="none" marker-end="url(#arrow)"/><text x="408" y="261" >reopen</text><text x="110" y="340" class="note">DONE допуска повторно отваряне и не е краен UML възел.</text>
<text x="30" y="402" class="note">Task Manager · UML · учебен проект</text>
</svg>
